<svg width="24" height="24" viewBox="0 0 24 24" fill="none" xmlns="http://www.w3.org/2000/svg">
<path d="M12 5.25C12 7.32107 10.3211 9 8.25 9C6.17893 9 4.5 7.32107 4.5 5.25C4.5 3.17893 6.17893 1.5 8.25 1.5C10.3211 1.5 12 3.17893 12 5.25Z" fill="#0A0A0A"/>
<path d="M4.5 12C2.01472 12 0 14.0147 0 16.5V22.5H12V12H4.5Z" fill="#0A0A0A"/>
<path d="M19.5 12H15V22.5H24V16.5C24 14.0147 21.9853 12 19.5 12Z" fill="#0A0A0A"/>
<path d="M18 9C19.6569 9 21 7.65685 21 6C21 4.34315 19.6569 3 18 3C16.3431 3 15 4.34315 15 6C15 7.65685 16.3431 9 18 9Z" fill="#0A0A0A"/>
</svg>
