<svg width="24" height="24" viewBox="0 0 24 24" fill="none" xmlns="http://www.w3.org/2000/svg">
<path d="M11.9974 3.5144L3.51244 11.9994L11.9974 20.4844L20.4824 11.9994L11.9974 3.5144ZM12.7044 1.3924L22.6044 11.2924C22.7919 11.4799 22.8972 11.7342 22.8972 11.9994C22.8972 12.2646 22.7919 12.5189 22.6044 12.7064L12.7044 22.6064C12.5169 22.7939 12.2626 22.8992 11.9974 22.8992C11.7323 22.8992 11.478 22.7939 11.2904 22.6064L1.39044 12.7064C1.20297 12.5189 1.09766 12.2646 1.09766 11.9994C1.09766 11.7342 1.20297 11.4799 1.39044 11.2924L11.2904 1.3924C11.478 1.20492 11.7323 1.09961 11.9974 1.09961C12.2626 1.09961 12.5169 1.20492 12.7044 1.3924ZM12.9974 9.99939V7.49939L16.4974 10.9994L12.9974 14.4994V11.9994H9.99744V14.9994H7.99744V10.9994C7.99744 10.7342 8.1028 10.4798 8.29033 10.2923C8.47787 10.1048 8.73222 9.99939 8.99744 9.99939H12.9974Z" fill="#0A0A0A"/>
</svg>
