<svg width="24" height="28" viewBox="0 0 24 28" fill="none" xmlns="http://www.w3.org/2000/svg">
<path fill-rule="evenodd" clip-rule="evenodd" d="M22.8859 24.0859C23.5288 23.9723 24 23.3829 24 22.6923V0.706531C24 0.27004 23.6301 -0.0619792 23.2237 0.00978783L16.5571 1.18706C16.2356 1.24382 16 1.5385 16 1.8838V13.2936L8.48867 3.34541C8.18693 2.94576 7.7048 2.75028 7.2284 2.83442L1.12079 3.91296L1.11413 3.91414C0.471213 4.02767 0 4.61705 0 5.30764V27.2935C0 27.73 0.369907 28.062 0.776267 27.9902L7.44293 26.8128C7.7644 26.7562 8 26.4615 8 26.1161V14.7063L15.5113 24.6546C15.8131 25.0541 16.2952 25.2497 16.7716 25.1656L16.7763 25.1648L22.8792 24.087L22.8859 24.0859Z" fill="#0A0A0A"/>
</svg>
