<svg width="24" height="24" viewBox="0 0 24 24" fill="none" xmlns="http://www.w3.org/2000/svg">
<path d="M9 10.5L10.5 9L7.06066 5.56066L7.93934 4.68198C9.01629 3.60503 10.477 3 12 3C13.523 3 14.9837 3.60503 16.0607 4.68198L16.1893 4.81066C17.3487 5.97 18 7.54242 18 9.18198L18 10.5L21 10.5V9.18198C21 6.74677 20.0326 4.41129 18.3107 2.68934L18.182 2.56066C16.5424 0.921097 14.3187 0 12 0C9.68131 0 7.45758 0.921096 5.81802 2.56066L4.93934 3.43934L1.5 0L0 1.5L0 10.5H9Z" fill="#0A0A0A"/>
<path d="M16.0607 19.318C14.9837 20.395 13.523 21 12 21C10.477 21 9.01629 20.395 7.93934 19.318L7.81066 19.1893C6.65131 18.03 6 16.4576 6 14.818L6 13.5L3 13.5V14.818C3 17.2532 3.96739 19.5887 5.68934 21.3107L5.81802 21.4393C7.45758 23.0789 9.68131 24 12 24C14.3187 24 16.5424 23.0789 18.182 21.4393L19.0607 20.5607L22.5 24L24 22.5L24 13.5L15 13.5L13.5 15L16.9393 18.4393L16.0607 19.318Z" fill="#0A0A0A"/>
</svg>
