<svg width="12" height="12" viewBox="0 0 12 12" fill="none" xmlns="http://www.w3.org/2000/svg">
<g clip-path="url(#clip0_401_46381)">
<path d="M6.00067 1.7572L1.75817 5.9997L6.00067 10.2422L10.2432 5.9997L6.00067 1.7572ZM6.35417 0.696198L11.3042 5.6462C11.3979 5.73996 11.4506 5.86711 11.4506 5.9997C11.4506 6.13228 11.3979 6.25943 11.3042 6.3532L6.35417 11.3032C6.26041 11.3969 6.13326 11.4496 6.00067 11.4496C5.86809 11.4496 5.74094 11.3969 5.64717 11.3032L0.697174 6.3532C0.603439 6.25943 0.550781 6.13228 0.550781 5.9997C0.550781 5.86711 0.603439 5.73996 0.697174 5.6462L5.64717 0.696198C5.74094 0.602462 5.86809 0.549805 6.00067 0.549805C6.13326 0.549805 6.26041 0.602462 6.35417 0.696198ZM6.50067 4.9997V3.7497L8.25067 5.4997L6.50067 7.2497V5.9997H5.00067V7.4997H4.00067V5.4997C4.00067 5.36709 4.05335 5.23991 4.14712 5.14614C4.24089 5.05238 4.36807 4.9997 4.50067 4.9997H6.50067Z" fill="#0A0A0A"/>
</g>
<defs>
<clipPath id="clip0_401_46381">
<rect width="12" height="12" fill="white"/>
</clipPath>
</defs>
</svg>
