<svg width="12" height="12" viewBox="0 0 12 12" fill="none" xmlns="http://www.w3.org/2000/svg">
<path fill-rule="evenodd" clip-rule="evenodd" d="M5.25 10.5C6.49712 10.5 7.64268 10.0652 8.54332 9.33882L11.1898 11.9852L11.9852 11.1898L9.33882 8.54332C10.0652 7.64268 10.5 6.49712 10.5 5.25C10.5 2.3505 8.14949 0 5.25 0C2.3505 0 0 2.3505 0 5.25C0 8.14949 2.3505 10.5 5.25 10.5ZM5.25 9.375C7.52817 9.375 9.375 7.52817 9.375 5.25C9.375 2.97183 7.52817 1.125 5.25 1.125C2.97183 1.125 1.125 2.97183 1.125 5.25C1.125 7.52817 2.97183 9.375 5.25 9.375Z" fill="#0A0A0A"/>
</svg>
