<svg width="12" height="12" viewBox="0 0 12 12" fill="none" xmlns="http://www.w3.org/2000/svg">
<path d="M4.5 5.25L5.25 4.5L3.53033 2.78033L3.96967 2.34099C4.50815 1.80251 5.23848 1.5 6 1.5C6.76152 1.5 7.49185 1.80251 8.03033 2.34099L8.09467 2.40533C8.67434 2.985 9 3.77121 9 4.59099L9 5.25L10.5 5.25V4.59099C10.5 3.37338 10.0163 2.20565 9.15533 1.34467L9.09099 1.28033C8.27121 0.460548 7.15935 0 6 0C4.84065 0 3.72879 0.460548 2.90901 1.28033L2.46967 1.71967L0.75 0L0 0.75L0 5.25H4.5Z" fill="#0A0A0A"/>
<path d="M8.03033 9.65901C7.49185 10.1975 6.76152 10.5 6 10.5C5.23848 10.5 4.50815 10.1975 3.96967 9.65901L3.90533 9.59467C3.32566 9.015 3 8.22879 3 7.40901L3 6.75L1.5 6.75V7.40901C1.5 8.62662 1.98369 9.79435 2.84467 10.6553L2.90901 10.7197C3.72879 11.5395 4.84065 12 6 12C7.15935 12 8.27121 11.5395 9.09099 10.7197L9.53033 10.2803L11.25 12L12 11.25L12 6.75L7.5 6.75L6.75 7.5L8.46967 9.21967L8.03033 9.65901Z" fill="#0A0A0A"/>
</svg>
