<svg width="20" height="20" viewBox="0 0 20 20" fill="none" xmlns="http://www.w3.org/2000/svg">
<path fill-rule="evenodd" clip-rule="evenodd" d="M18.75 11.25C18.75 16.0825 14.8325 20 10 20C5.16751 20 1.25 16.0825 1.25 11.25C1.25 6.875 5 3.75 5 3.75H7.5V5.625C7.5 6.31536 8.05964 6.875 8.75 6.875C9.44036 6.875 10 6.31536 10 5.625V0H12.5C12.5 0 18.75 3.75 18.75 11.25ZM12.5 15C12.5 16.3807 11.3807 17.5 10 17.5C8.61929 17.5 7.5 16.3807 7.5 15C7.5 11.875 10 10 10 10C10 10 12.5 11.875 12.5 15Z" fill="#0A0A0A"/>
</svg>
