<svg width="20" height="20" viewBox="0 0 20 20" fill="none" xmlns="http://www.w3.org/2000/svg">
<g clip-path="url(#clip0_401_46343)">
<path d="M9.99526 2.93029L2.92443 10.0011L9.99526 17.072L17.0661 10.0011L9.99526 2.93029ZM10.5844 1.16196L18.8344 9.41196C18.9907 9.56823 19.0784 9.78015 19.0784 10.0011C19.0784 10.2221 18.9907 10.434 18.8344 10.5903L10.5844 18.8403C10.4282 18.9965 10.2162 19.0843 9.99526 19.0843C9.77429 19.0843 9.56237 18.9965 9.4061 18.8403L1.1561 10.5903C0.999872 10.434 0.912109 10.2221 0.912109 10.0011C0.912109 9.78015 0.999872 9.56823 1.1561 9.41196L9.4061 1.16196C9.56237 1.00573 9.77429 0.917969 9.99526 0.917969C10.2162 0.917969 10.4282 1.00573 10.5844 1.16196ZM10.8286 8.33446V6.25112L13.7453 9.16779L10.8286 12.0845V10.0011H8.3286V12.5011H6.66193V9.16779C6.66193 8.94678 6.74973 8.73482 6.90601 8.57854C7.06229 8.42226 7.27425 8.33446 7.49526 8.33446H10.8286Z" fill="#0A0A0A"/>
</g>
<defs>
<clipPath id="clip0_401_46343">
<rect width="20" height="20" fill="white"/>
</clipPath>
</defs>
</svg>
