<svg width="20" height="24" viewBox="0 0 20 24" fill="none" xmlns="http://www.w3.org/2000/svg">
<path fill-rule="evenodd" clip-rule="evenodd" d="M19.0716 20.0715C19.6073 19.9769 20 19.4857 20 18.9103V0.588776C20 0.225034 19.6918 -0.0516493 19.3531 0.00815652L13.7976 0.989213C13.5297 1.03652 13.3333 1.28208 13.3333 1.56983V11.078L7.07389 2.78784C6.82244 2.4548 6.42067 2.2919 6.02367 2.36202L0.933989 3.2608L0.928444 3.26179C0.392678 3.35639 0 3.84754 0 4.42304V22.7445C0 23.1083 0.308256 23.385 0.646889 23.3252L6.20244 22.344C6.47033 22.2968 6.66667 22.0512 6.66667 21.7634V12.2553L12.9261 20.5455C13.1776 20.8784 13.5793 21.0414 13.9763 20.9713L13.9802 20.9706L19.066 20.0725L19.0716 20.0715Z" fill="#0A0A0A"/>
</svg>
