<svg width="20" height="20" viewBox="0 0 20 20" fill="none" xmlns="http://www.w3.org/2000/svg">
<path fill-rule="evenodd" clip-rule="evenodd" d="M8.75 17.5C10.8285 17.5 12.7378 16.7753 14.2389 15.5647L18.6496 19.9754L19.9754 18.6496L15.5647 14.2389C16.7753 12.7378 17.5 10.8285 17.5 8.75C17.5 3.91751 13.5825 0 8.75 0C3.91751 0 0 3.91751 0 8.75C0 13.5825 3.91751 17.5 8.75 17.5ZM8.75 15.625C12.547 15.625 15.625 12.547 15.625 8.75C15.625 4.95304 12.547 1.875 8.75 1.875C4.95304 1.875 1.875 4.95304 1.875 8.75C1.875 12.547 4.95304 15.625 8.75 15.625Z" fill="#0A0A0A"/>
</svg>
