<svg width="20" height="20" viewBox="0 0 20 20" fill="none" xmlns="http://www.w3.org/2000/svg">
<path d="M7.5 8.75L8.75 7.5L5.88388 4.63388L6.61612 3.90165C7.51358 3.00419 8.7308 2.5 10 2.5C11.2692 2.5 12.4864 3.00419 13.3839 3.90165L13.4911 4.00888C14.4572 4.975 15 6.28535 15 7.65165L15 8.75L17.5 8.75V7.65165C17.5 5.62231 16.6938 3.67608 15.2589 2.24112L15.1516 2.13388C13.7853 0.76758 11.9322 0 10 0C8.06776 0 6.21465 0.76758 4.84835 2.13388L4.11612 2.86612L1.25 0L0 1.25L0 8.75H7.5Z" fill="#0A0A0A"/>
<path d="M13.3839 16.0983C12.4864 16.9958 11.2692 17.5 10 17.5C8.7308 17.5 7.51358 16.9958 6.61612 16.0983L6.50888 15.9911C5.54276 15.025 5 13.7147 5 12.3483L5 11.25L2.5 11.25V12.3483C2.5 14.3777 3.30615 16.3239 4.74112 17.7589L4.84835 17.8661C6.21465 19.2324 8.06776 20 10 20C11.9322 20 13.7853 19.2324 15.1516 17.8661L15.8839 17.1339L18.75 20L20 18.75L20 11.25L12.5 11.25L11.25 12.5L14.1161 15.3661L13.3839 16.0983Z" fill="#0A0A0A"/>
</svg>
