<svg width="306" height="260" viewBox="0 0 306 260" fill="none" xmlns="http://www.w3.org/2000/svg">
<path d="M28.9795 192.114C21.4946 189.635 12.3989 184.145 7.05745 178.518C-10.9536 159.544 9.937 136.88 20.6378 120.489C26.3973 111.667 31.4863 100.589 32.0775 89.9556C32.44 83.4329 31.7495 77.1784 28.671 71.2876C27.1633 68.3331 24.334 64.6034 22.2614 62.0734C17.7124 56.2516 14.6791 48.8124 15.2505 41.3876C17.3536 14.0604 26.8723 -2.00338 56.6178 0.201078C78.7715 1.84291 97.3075 10.4689 117.736 18.4237C127.885 22.3756 138.6 25.6901 148.868 29.3819C149.802 29.7196 150.393 30.2431 151.053 30.9521C164.419 32.2811 178.159 30.7431 191.506 31.9099C192.82 32.0246 195.16 33.5761 196.483 34.1819C197.703 32.3526 199.561 32.1541 201.517 31.5136C205.442 30.2279 209.378 29.1161 213.401 28.1736L215.683 26.8366C216.525 26.1131 216.974 25.9076 217.964 25.3916C219.154 24.5344 219.743 24.1821 221.048 23.5101C231.593 12.8225 236.897 9.58314 252.468 8.55516C271.425 7.30329 295.043 21.0386 296.773 41.4686C296.343 43.5909 296.168 47.7674 296.793 49.8226C294.845 62.8351 285.518 73.1384 277.675 83.1864C269.853 93.2031 259.243 104.024 258.288 117.384C257.918 123.102 258.403 126.387 261.893 131.31C273.498 147.688 308.583 150.588 305.748 175.895C305.123 181.385 301.135 187.183 296.72 190.264C292.128 193.47 283.225 196.941 277.593 197.755C271.778 198.596 263.998 199.967 258.223 200.53C248.612 201.467 238.792 201.721 229.153 201.828C224.774 201.825 218.38 202.579 214.048 202.265C211.753 202.098 203.013 202.824 202.147 202.678C201.97 202.648 201.795 202.607 201.624 202.555L201.288 202.779C200.82 208.993 201.478 215.69 201.085 221.945C200.84 225.858 199.42 228.115 197.23 231.205C196.398 231.434 192.757 234.418 190.093 234.62C185.887 234.939 181.644 234.806 177.449 234.795L153.485 234.776L125.67 234.792C121.283 234.794 116.29 234.955 111.822 234.552C109.554 234.347 104.85 230.745 104.269 230.702C104.211 230.339 101.804 225.998 101.415 225.268C100.439 220.478 101.045 213.549 100.852 208.493C100.795 207.011 100.987 204.561 100.665 203.2L100.171 202.97L99.6678 203.048C88.087 201.872 75.839 202.007 64.4653 200.377C52.8805 198.717 39.8698 196.325 28.9795 192.114ZM231.605 30.6561C231.779 29.0769 232.131 26.9709 231.818 25.4656C231.712 26.1091 231.642 26.6116 231.579 27.2631C231.436 27.2949 231.265 27.3526 231.137 27.3346C231.032 28.3569 231.384 29.6259 231.605 30.6561Z" fill="#51F392"/>
<path d="M221.048 23.5101C231.593 12.8225 236.897 9.58314 252.468 8.55516C271.425 7.30329 295.043 21.0386 296.773 41.4686C296.343 43.5909 296.168 47.7674 296.793 49.8226C294.845 62.8351 285.518 73.1384 277.675 83.1864C269.853 93.2031 259.243 104.024 258.288 117.384C257.918 123.102 258.403 126.387 261.893 131.31C273.498 147.688 308.583 150.588 305.748 175.895C305.123 181.385 301.135 187.183 296.72 190.264C292.128 193.47 283.225 196.941 277.593 197.755C271.778 198.596 263.998 199.967 258.223 200.53C248.612 201.467 238.792 201.721 229.153 201.828C224.774 201.825 218.38 202.579 214.048 202.265C211.753 202.098 203.013 202.824 202.147 202.678C201.97 202.648 201.795 202.607 201.624 202.555C199.985 200.698 201.486 116.75 200.964 107.203C200.928 106.55 200.909 103.085 201.205 102.407C202.005 101.896 202.626 101.591 202.5 100.564C202.07 97.0781 203.206 79.7184 202.325 77.7426C201.726 77.4911 201.606 77.4451 201.109 77.0316C200.809 75.6906 200.964 69.5731 200.966 67.7791C200.973 60.0989 201.007 52.4019 200.988 44.7179C200.977 40.3126 199.695 37.2569 196.483 34.1819C197.703 32.3526 199.561 32.1541 201.517 31.5136C205.442 30.2279 209.378 29.1161 213.401 28.1736L215.683 26.8366C216.525 26.1131 216.974 25.9076 217.964 25.3916C219.154 24.5344 219.743 24.1821 221.048 23.5101ZM231.605 30.6561C231.779 29.0769 232.131 26.9709 231.818 25.4656C231.712 26.1091 231.642 26.6116 231.579 27.2631C231.436 27.2949 231.265 27.3526 231.137 27.3346C231.032 28.3569 231.384 29.6259 231.605 30.6561Z" fill="#EFFCF3"/>
<path d="M234.853 22.0773L235.356 22.1936C235.482 22.5921 235.58 23.0227 235.806 23.3576C235.631 24.9044 234.648 25.4266 234.18 26.7621C232.237 32.3096 230.326 37.6859 225.646 41.5734C220.309 46.0064 217.362 43.8799 212.503 44.8031C211.563 44.5184 210.99 43.2956 210.493 42.4244C210.406 38.1546 209.781 32.9796 212.857 29.6354L213.401 28.1736L215.683 26.8366C216.525 26.1131 216.974 25.9076 217.964 25.3916C219.154 24.5344 219.743 24.1821 221.048 23.5101C221.405 23.4919 222.433 23.4641 222.726 23.4051C223.122 24.4509 223.368 24.6269 224.474 25.0449L224.59 25.2029L225.399 25.2741C226.119 25.4236 227.21 25.6829 227.91 25.7476L228.948 24.6076C229.088 24.3036 229.357 24.1861 229.668 23.9534C230.891 24.1151 231.323 23.9376 232.53 23.6076C233.645 23.1396 234.251 23.0961 234.853 22.0773ZM231.605 30.6561C231.779 29.0769 232.131 26.9709 231.818 25.4656C231.712 26.1091 231.642 26.6116 231.579 27.2631C231.436 27.2949 231.265 27.3526 231.137 27.3346C231.032 28.3569 231.384 29.6259 231.605 30.6561Z" fill="#51F392"/>
<path d="M231.137 27.3346C231.265 27.3526 231.436 27.2949 231.579 27.2631C231.642 26.6116 231.712 26.1091 231.818 25.4656C232.131 26.9709 231.779 29.0769 231.605 30.6561C231.384 29.6259 231.032 28.3569 231.137 27.3346Z" fill="#9BF3BF" fill-opacity="0.988235"/>
<path d="M218.33 32.1006C216.751 32.1171 214.013 32.4604 212.687 32.1656L212.719 31.8826C214.255 30.9991 216.904 30.7039 218.601 31.2176L218.072 32.5601L218.309 33.0074L218.783 33.1511C218.075 34.0591 217.188 34.9979 216.556 35.8636C217.485 38.0136 218.201 40.6431 217.629 42.9801C217.295 41.9449 216.218 37.8461 215.776 37.3564C214.879 37.7289 214.597 39.3691 213.438 40.2374C213.18 39.2459 214.147 37.4416 214.599 36.5046C213.719 36.9244 212.583 37.6091 211.671 37.4739L211.477 37.1336C212.209 36.0549 213.394 35.6174 214.64 35.3886C214.733 35.3719 214.826 35.3571 214.919 35.3449L215.3 35.2156C215.958 34.7301 217.673 32.8074 218.33 32.1006Z" fill="#ACF9CB"/>
<path d="M215.3 35.2156C216.17 35.3201 215.972 35.1611 216.437 35.6761L216.355 36.2121C215.696 36.7739 215.986 36.6806 215.253 36.6966C214.751 36.1041 214.893 36.3829 214.919 35.3449L215.3 35.2156Z" fill="#EFFCF3"/>
<path d="M221.048 23.5101C221.405 23.4919 222.433 23.4641 222.726 23.4051C223.122 24.4509 223.368 24.6269 224.474 25.0449L224.59 25.2029L224.175 25.8669L225.349 26.2249L225.798 26.6284C225.365 27.2471 223.888 27.8389 223.155 28.1089L220.873 27.4684C219.08 27.2264 217.498 26.9546 215.683 26.8366C216.525 26.1131 216.974 25.9076 217.964 25.3916C219.154 24.5344 219.743 24.1821 221.048 23.5101Z" fill="#51F392"/>
<path d="M221.048 23.5101C221.405 23.4919 222.433 23.4641 222.726 23.4051C223.122 24.4509 223.368 24.6269 224.474 25.0449C222.86 24.9261 221.791 24.9006 220.287 25.5331L219.718 26.1639C219.13 25.9124 218.546 25.6551 217.964 25.3916C219.154 24.5344 219.743 24.1821 221.048 23.5101Z" fill="#ACF9CB"/>
<path d="M219.718 26.1639L220.287 25.5331C221.791 24.9006 222.86 24.9261 224.474 25.0449L224.59 25.2029L224.175 25.8669L225.349 26.2249C223.578 26.2754 221.436 26.4026 219.718 26.1639Z" fill="#9BF3BF"/>
<path d="M213.401 28.1736L215.683 26.8366C217.498 26.9546 219.08 27.2264 220.873 27.4684L223.155 28.1089L223.176 28.1919L221.992 28.9499L221.692 29.3751C220.659 28.7749 216.951 29.2156 215.64 29.3126C214.986 29.3811 214.638 29.1101 213.974 28.8566L212.857 29.6354L213.401 28.1736Z" fill="#ACF9CB"/>
<path d="M213.401 28.1736L215.683 26.8366C217.498 26.9546 219.08 27.2264 220.873 27.4684C219.296 27.5129 217.158 27.4711 215.781 28.1146L215.364 28.6376C215.468 28.9991 215.434 29.0199 215.64 29.3126C214.986 29.3811 214.638 29.1101 213.974 28.8566L212.857 29.6354L213.401 28.1736Z" fill="#3ACE6E"/>
<path d="M224.59 25.2029L225.399 25.2741C226.119 25.4236 227.21 25.6829 227.91 25.7476C226.939 26.1584 226.942 25.9796 226.44 26.7226L226.638 27.1051C227.543 27.3181 227.984 27.2779 228.692 26.6571C228.982 28.7171 230.695 34.0899 229.479 35.5461C229.412 35.4714 228.163 28.5041 227.6 27.0254C226.672 27.6206 225.406 28.3779 224.538 29.0031L224.455 29.3671C223.802 29.6899 223.691 29.7836 222.984 29.8681C222.524 29.6079 222.348 29.3496 221.992 28.9499L223.176 28.1919L223.155 28.1089C223.888 27.8389 225.365 27.2471 225.798 26.6284L225.349 26.2249L224.175 25.8669L224.59 25.2029Z" fill="#ACF9CB"/>
<path d="M223.176 28.1919L224.041 28.2969C224.235 28.5489 224.389 28.7206 224.538 29.0031L224.455 29.3671C223.802 29.6899 223.691 29.7836 222.984 29.8681C222.524 29.6079 222.348 29.3496 221.992 28.9499L223.176 28.1919Z" fill="#EFFCF3"/>
<path d="M229.668 23.9534C230.891 24.1151 231.323 23.9376 232.53 23.6076C232.741 24.3714 232.776 24.0754 232.44 24.7266L231.818 25.4656C231.712 26.1091 231.642 26.6116 231.579 27.2631C231.436 27.2949 231.265 27.3526 231.137 27.3346C230.956 26.3496 230.997 26.1581 230.35 25.6461C229.606 25.7106 229.27 26.1416 228.692 26.6571C227.984 27.2779 227.543 27.3181 226.638 27.1051L226.44 26.7226C226.942 25.9796 226.939 26.1584 227.91 25.7476L228.948 24.6076C229.088 24.3036 229.357 24.1861 229.668 23.9534Z" fill="#EFFCF3"/>
<path d="M224.455 29.3671C225.557 31.9554 226.441 36.1831 225.731 38.9329L225.439 39.0719C224.499 37.4244 225.14 30.9544 223.038 30.0066L222.984 29.8681C223.691 29.7836 223.802 29.6899 224.455 29.3671Z" fill="#ACF9CB"/>
<path d="M219.743 32.5746L220.612 32.0524C221.358 33.8684 222.739 39.3936 221.795 41.1394L221.354 41.2016C220.873 40.1031 220.928 33.9809 219.743 32.5746Z" fill="#ACF9CB"/>
<path d="M221.992 28.9499C222.348 29.3496 222.524 29.6079 222.984 29.8681L223.038 30.0066C222.14 30.5946 221.325 31.2419 220.612 32.0524L219.743 32.5746L218.783 33.1511L218.309 33.0074L218.072 32.5601L218.601 31.2176C219.933 31.0604 220.745 30.2459 221.692 29.3751L221.992 28.9499Z" fill="#EFFCF3"/>
<path d="M234.853 22.0773L235.356 22.1936C235.482 22.5921 235.58 23.0227 235.806 23.3576C234.591 23.9289 233.734 24.3131 232.44 24.7266C232.776 24.0754 232.741 24.3714 232.53 23.6076C233.645 23.1396 234.251 23.0961 234.853 22.0773Z" fill="#ACF9CB"/>
<path d="M228.024 22.5423C229.838 22.2792 233.098 21.9824 234.853 22.0773C234.251 23.0961 233.645 23.1396 232.53 23.6076C231.323 23.9376 230.891 24.1151 229.668 23.9534C229.237 23.4149 228.928 23.4356 228.2 23.1563L228.024 22.5423Z" fill="#51F392"/>
<path d="M225.937 24.0101L225.862 23.5624C226.393 23.2055 227.47 23.2226 228.2 23.1563C228.928 23.4356 229.237 23.4149 229.668 23.9534C229.357 24.1861 229.088 24.3036 228.948 24.6076L227.91 25.7476C227.21 25.6829 226.119 25.4236 225.399 25.2741C225.6 24.4121 225.409 24.6991 226.103 24.1879L225.937 24.0101Z" fill="#ACF9CB"/>
<path d="M226.103 24.1879C226.887 24.2524 228.305 24.2929 228.948 24.6076L227.91 25.7476C227.21 25.6829 226.119 25.4236 225.399 25.2741C225.6 24.4121 225.409 24.6991 226.103 24.1879Z" fill="#51F392"/>
<path d="M222.726 23.4051L224.181 23.0755C225.08 23.3616 225.187 23.4301 225.937 24.0101L226.103 24.1879C225.409 24.6991 225.6 24.4121 225.399 25.2741L224.59 25.2029L224.474 25.0449C223.368 24.6269 223.122 24.4509 222.726 23.4051Z" fill="#3ACE6E"/>
<path d="M224.181 23.0755C225.707 22.6295 226.444 22.4769 228.024 22.5423L228.2 23.1563C227.47 23.2226 226.393 23.2055 225.862 23.5624L225.937 24.0101C225.187 23.4301 225.08 23.3616 224.181 23.0755Z" fill="#9BF3BF"/>
<path d="M28.9795 192.114C21.4946 189.635 12.3989 184.145 7.05745 178.518C-10.9536 159.544 9.937 136.88 20.6378 120.489C26.3973 111.667 31.4863 100.589 32.0775 89.9556C32.44 83.4329 31.7495 77.1784 28.671 71.2876C27.1633 68.3331 24.334 64.6034 22.2614 62.0734C17.7124 56.2516 14.6791 48.8124 15.2505 41.3876C17.3536 14.0604 26.8723 -2.00338 56.6178 0.201078C78.7715 1.84291 97.3075 10.4689 117.736 18.4237C127.885 22.3756 138.6 25.6901 148.868 29.3819C149.802 29.7196 150.393 30.2431 151.053 30.9521C140.067 31.3101 128.786 30.8861 117.72 31.0094C109.039 31.1061 103.972 33.0074 101.202 42.2319C100.949 43.0734 100.353 45.4026 99.3103 45.2529C95.5768 44.9894 92.4903 43.0811 88.652 42.9556C85.3213 42.8466 83.9913 45.6156 81.537 46.3571C74.5468 48.4696 68.7875 44.5114 64.227 52.3879C65.2493 55.3519 66.589 57.3136 67.9178 59.9619C69.3355 62.7866 67.0033 68.3879 66.0295 71.3916C67.1685 74.0679 69.927 77.7739 69.0963 80.2946C68.725 81.4211 67.5028 82.5584 67.5308 83.2689C71.2935 84.9734 73.5473 83.0714 73.9205 79.2306C76.4743 78.0421 79.0788 76.9724 81.6063 75.7414C84.9575 79.6004 94.0335 81.1056 93.6583 73.8504C93.8663 73.8539 94.0743 73.8541 94.282 73.8511C99.4653 73.7646 111.304 65.6844 114.799 62.0249C117.723 63.1306 120.871 63.8529 122.285 66.6864C122.887 70.4131 109.222 77.3696 107.161 81.7014L107.215 89.7479C108.558 92.7381 107.739 95.1544 107.196 98.2154C107.234 101.186 107.224 104.157 107.167 107.128C107.043 107.727 106.964 108.17 106.76 108.755L106.126 107.801C105.331 109.883 104.324 108.312 103.599 109.772C102.261 109.248 98.1773 111.214 96.7863 111.714C86.707 115.337 86.571 123.117 79.78 128.746L78.6873 128.618L78.7088 127.235L78.121 127.385L77.9793 128.526L77.645 128.529C77.4523 128.314 77.3008 128.148 77.1208 127.918L77.11 128.005C76.7358 130.547 75.9858 130.277 73.6495 130.785L74.3993 131.647C73.6368 133.104 68.2875 137.573 67.0115 138.279L66.9325 138.782C72.7323 144.13 75.0483 155.33 77.254 162.837C79.1545 169.307 79.7555 176.308 88.589 176.293C96.6765 176.28 96.7273 165.329 97.2738 159.249C98.4508 160.832 99.652 162.502 100.932 163.993C101.035 168.727 101.492 200.55 100.717 202.735L100.171 202.97L99.6678 203.048C88.087 201.872 75.839 202.007 64.4653 200.377C52.8805 198.717 39.8698 196.325 28.9795 192.114Z" fill="#EFFCF3"/>
<path d="M114.799 62.0249C117.723 63.1306 120.871 63.8529 122.285 66.6864C122.887 70.4131 109.222 77.3696 107.161 81.7014L107.215 89.7479C108.558 92.7381 107.739 95.1544 107.196 98.2154C107.234 101.186 107.224 104.157 107.167 107.128C107.043 107.727 106.964 108.17 106.76 108.755L106.126 107.801C105.331 109.883 104.324 108.312 103.599 109.772C102.261 109.248 98.1773 111.214 96.7863 111.714C86.707 115.337 86.571 123.117 79.78 128.746L78.6873 128.618L78.7088 127.235C80.1615 125.528 77.7313 108.491 76.9918 105.547C76.6845 104.342 76.2153 103.184 75.5968 102.105C73.8413 99.1036 70.4823 97.2581 67.0285 98.4861C62.0758 100.247 58.0605 104.186 53.6318 106.796C47.255 110.555 40.813 114.222 34.4235 117.969C33.9595 117.656 30.0885 114.108 29.6745 113.674C31.9943 111.877 36.652 109.373 39.2145 107.799C48.105 102.338 58.6105 96.1489 64.5425 87.4246C65.3483 86.2394 67.0605 84.4784 67.5308 83.2689C71.2935 84.9734 73.5473 83.0714 73.9205 79.2306C76.4743 78.0421 79.0788 76.9724 81.6063 75.7414C84.9575 79.6004 94.0335 81.1056 93.6583 73.8504C93.8663 73.8539 94.0743 73.8541 94.282 73.8511C99.4653 73.7646 111.304 65.6844 114.799 62.0249Z" fill="#FE748E"/>
<path d="M107.196 98.2154C107.234 101.186 107.224 104.157 107.167 107.128C107.043 107.727 106.964 108.17 106.76 108.755L106.126 107.801C106.303 104.786 106.433 101.079 107.196 98.2154Z" fill="#0E2044"/>
<path d="M107.161 81.7014L107.215 89.7479C105.821 87.8831 105.901 83.6076 107.161 81.7014Z" fill="#000D18"/>
<path d="M57.6888 130.604C55.7748 130.262 49.8758 129.714 51.581 126.387C53.0263 125.49 69.2213 125.204 72.1613 125.362C74.467 125.485 75.541 126.55 77.11 128.005C76.7358 130.547 75.9858 130.277 73.6495 130.785L74.3993 131.647C73.6368 133.104 68.2875 137.573 67.0115 138.279C66.654 137.145 58.949 131.304 57.6888 130.604Z" fill="#474462"/>
<path d="M57.6888 130.604C62.0698 130.565 69.5793 130.271 73.6495 130.785L74.3993 131.647C73.6368 133.104 68.2875 137.573 67.0115 138.279C66.654 137.145 58.949 131.304 57.6888 130.604Z" fill="#FDBDC5"/>
<path d="M26.256 128.088C21.2371 121.781 24.4595 118.202 29.6745 113.674C30.0885 114.108 33.9595 117.656 34.4235 117.969C32.018 118.152 27.3925 126.168 26.256 128.088Z" fill="#FDBDC5"/>
<path d="M151.053 30.9521C164.419 32.2811 178.159 30.7431 191.506 31.9099C192.82 32.0246 195.16 33.5761 196.483 34.1819C199.695 37.2569 200.977 40.3126 200.988 44.7179C201.007 52.4019 200.973 60.0989 200.966 67.7791C200.964 69.5731 200.809 75.6906 201.109 77.0316C201.606 77.4451 201.726 77.4911 202.325 77.7426C203.206 79.7184 202.07 97.0781 202.5 100.564C202.626 101.591 202.005 101.896 201.205 102.407C200.909 103.085 200.928 106.55 200.964 107.203C201.486 116.75 199.985 200.698 201.624 202.555L201.288 202.779C200.82 208.993 201.478 215.69 201.085 221.945C200.84 225.858 199.42 228.115 197.23 231.205C196.398 231.434 192.757 234.418 190.093 234.62C185.887 234.939 181.644 234.806 177.449 234.795L153.485 234.776L125.67 234.792C121.283 234.794 116.29 234.955 111.822 234.552C109.554 234.347 104.85 230.745 104.269 230.702C104.211 230.339 101.804 225.998 101.415 225.268C100.439 220.478 101.045 213.549 100.852 208.493C100.795 207.011 100.987 204.561 100.665 203.2L100.171 202.97L100.717 202.735C101.492 200.55 101.035 168.727 100.932 163.993C99.652 162.502 98.4508 160.832 97.2738 159.249C96.7273 165.329 96.6765 176.28 88.589 176.293C79.7555 176.308 79.1545 169.307 77.254 162.837C75.0483 155.33 72.7323 144.13 66.9325 138.782L67.0115 138.279C68.2875 137.573 73.6368 133.104 74.3993 131.647L73.6495 130.785C75.9858 130.277 76.7358 130.547 77.11 128.005L77.1208 127.918C77.3008 128.148 77.4523 128.314 77.645 128.529L77.9793 128.526L78.121 127.385L78.7088 127.235L78.6873 128.618L79.78 128.746C86.571 123.117 86.707 115.337 96.7863 111.714C98.1773 111.214 102.261 109.248 103.599 109.772C104.324 108.312 105.331 109.883 106.126 107.801L106.76 108.755C106.964 108.17 107.043 107.727 107.167 107.128C107.51 115.894 106.766 125.471 107.575 134.209C108.266 137.161 110.18 140.389 111.164 143.165C113.859 150.769 125.055 173.818 107.229 170.801L107.234 206.203C107.233 209.504 107.029 219.868 107.414 222.436C107.658 224.154 108.423 225.756 109.606 227.025C111.19 228.716 113.638 229.368 115.876 229.356C120.59 229.333 125.305 229.297 130.019 229.298L162.978 229.307L179.357 229.328C183.519 229.338 189.413 230.196 192.482 227.2C195.355 224.395 195.018 220.747 195.03 217.091L195.015 62.4061C195.015 56.3049 195.152 49.9799 194.903 43.9071C194.515 34.4361 181.876 36.4819 175.462 36.5096C175.575 39.8481 174.401 43.6591 170.422 44.0326C164.737 44.5659 158.689 44.2276 152.954 44.2919C146.31 44.3664 139.577 44.3249 132.935 44.1649C127.287 43.9091 126.423 41.5011 125.841 36.5241L116.936 36.4824C109.196 36.5229 107.142 40.3646 107.236 47.4936C110.192 52.4521 111.314 56.2311 117.603 56.4984C116.711 58.6659 116.042 60.0534 114.799 62.0249C111.304 65.6844 99.4653 73.7646 94.282 73.8511C94.0743 73.8541 93.8663 73.8539 93.6583 73.8504C94.0335 81.1056 84.9575 79.6004 81.6063 75.7414C79.0788 76.9724 76.4743 78.0421 73.9205 79.2306C73.5473 83.0714 71.2935 84.9734 67.5308 83.2689C67.5028 82.5584 68.725 81.4211 69.0963 80.2946C69.927 77.7739 67.1685 74.0679 66.0295 71.3916C67.0033 68.3879 69.3355 62.7866 67.9178 59.9619C66.589 57.3136 65.2493 55.3519 64.227 52.3879C68.7875 44.5114 74.5468 48.4696 81.537 46.3571C83.9913 45.6156 85.3213 42.8466 88.652 42.9556C92.4903 43.0811 95.5768 44.9894 99.3103 45.2529C100.353 45.4026 100.949 43.0734 101.202 42.2319C103.972 33.0074 109.039 31.1061 117.72 31.0094C128.786 30.8861 140.067 31.3101 151.053 30.9521Z" fill="#403F67"/>
<path d="M79.78 128.746C86.571 123.117 86.707 115.337 96.7863 111.714C98.1773 111.214 102.261 109.248 103.599 109.772C104.076 116.308 104.503 121.355 105.593 127.818C99.2115 129.843 86.7743 128.704 79.78 128.746Z" fill="#F8F7F8"/>
<path d="M86.2228 56.0816C90.3353 58.5971 91.5475 62.6154 94.6278 66.4166C93.8103 68.1279 93.2398 69.2749 92.2475 70.8844C92.8895 72.0166 93.1748 72.6396 93.6583 73.8504C94.0335 81.1056 84.9575 79.6004 81.6063 75.7414C82.046 75.2359 82.4013 74.9536 82.4813 74.3069C82.1443 73.8384 79.1963 72.2679 77.7483 70.9496C78.3735 69.6009 79.0078 68.4254 79.7133 67.1231C78.2885 64.8504 78.4008 64.4574 78.4273 61.8269C80.5725 58.4901 82.696 57.4829 86.2228 56.0816Z" fill="#FDBDC5"/>
<path d="M77.11 128.005L77.1208 127.918C77.3008 128.148 77.4523 128.314 77.645 128.529L77.9793 128.526L78.121 127.385L78.7088 127.235L78.6873 128.618C78.7568 129.458 78.9548 130.336 78.458 130.98C77.587 131.646 75.6678 131.537 74.3993 131.647L73.6495 130.785C75.9858 130.277 76.7358 130.547 77.11 128.005Z" fill="#F8F7F8"/>
<path d="M141.865 37.3471C145.326 37.0701 150.529 37.1416 154.065 37.2546C154.781 37.2776 154.964 37.5674 155.305 38.0199C155.468 38.8171 155.3 39.1799 155.073 39.9436C152.694 40.0504 142.757 40.5241 141.533 39.2911C141.362 38.4764 141.575 38.1104 141.865 37.3471Z" fill="#F8F7F8"/>
<path d="M77.9903 136.744L79.0278 136.743L79.3528 137.062C79.5768 139.265 80.3678 141.93 80.9518 144.083C80.115 142.915 77.2925 138.273 77.3698 136.972L77.9903 136.744Z" fill="#FDBDC5"/>
<path d="M158.705 37.1821C159.235 36.9581 159.846 37.0411 160.297 37.3989C160.748 37.7564 160.969 38.3316 160.872 38.8991C160.775 39.4666 160.376 39.9361 159.832 40.1239C159.029 40.4009 158.15 39.9911 157.846 39.1976C157.542 38.4041 157.922 37.5126 158.705 37.1821Z" fill="#F8F7F8"/>
<path d="M77.9903 136.744C77.4895 136.563 77.1363 136.494 76.6053 136.459L76.2288 136.081C76.7405 135.278 78.5328 135.493 79.16 136.065C79.1465 136.551 79.2365 136.399 79.0278 136.743L77.9903 136.744Z" fill="#474462"/>
<path d="M100.426 67.4166L100.747 67.6951C101.186 68.8044 101.015 69.7246 100.592 70.8004C99.8768 70.1359 100.241 68.2649 100.426 67.4166Z" fill="#474462"/>
<path d="M146.947 108.012C160.717 105.583 173.842 114.798 176.234 128.574C178.625 142.35 169.374 155.45 155.591 157.804C141.862 160.149 128.824 150.942 126.441 137.218C124.059 123.495 133.231 110.432 146.947 108.012Z" fill="#3ACE6E"/>
<path d="M163.416 122.447C165.239 122.806 166.929 125.073 167.947 126.53C164.996 130.06 160.196 134.494 156.84 137.938C154.441 140.402 149.677 145.358 147.188 147.289C144.508 145.064 141.975 142.279 139.556 139.749C137.881 138.098 136.18 136.487 134.703 134.655C136.145 132.618 137.112 131.65 139.099 130.165C141.546 132.255 144.971 135.921 147.321 138.3C151.733 133.591 156.431 129.138 160.977 124.557C161.739 123.79 162.539 123.082 163.416 122.447Z" fill="#F8F7F8"/>
<path d="M104.269 230.702C104.85 230.745 109.554 234.347 111.822 234.552C116.29 234.955 121.283 234.794 125.67 234.792L153.485 234.776L177.449 234.795C181.644 234.806 185.887 234.939 190.093 234.62C192.757 234.418 196.398 231.434 197.23 231.205C206.319 233.252 242.94 235.113 247.363 241.942C247.711 242.48 247.807 243.108 247.638 243.728C247.219 245.263 244.552 246.665 243.19 247.357C236.908 250.55 228.209 251.115 221.26 252.093C217.391 252.638 213.55 253.385 209.666 253.815C186.606 256.37 163.326 256.565 140.152 256.75C134.122 256.8 128.127 256.515 122.103 256.363C119.53 256.298 116.813 256.093 114.248 256.253C109.635 255.573 101.449 255.253 96.4878 254.888C87.927 254.31 79.3943 253.373 70.912 252.08C66.989 251.503 61.2398 250.945 57.9643 248.843C55.1265 247.264 56.652 245.362 55.3748 242.66C54.6835 241.197 52.8665 239.218 52.6248 237.629L53.158 237.209C54.6468 237.388 55.747 237.043 57.1945 236.71C62.8528 235.529 68.3593 234.326 74.13 233.804C78.9995 233.363 83.8733 232.938 88.7405 232.474C89.335 232.534 91.5138 232.172 92.2258 232.07C93.1255 231.834 95.096 231.677 96.097 231.57C99.412 231.005 100.874 230.628 104.269 230.702Z" fill="#EFFCF3"/>
<path d="M255.245 246.96C255.81 247.009 255.858 247.115 256.308 247.513C256.983 249.063 256.07 250.748 255.473 252.353C256.913 251.108 258.433 249.453 260.485 249.768C262.2 251.435 259.25 254.173 258.09 255.343C259.858 255.258 267.753 255.343 267.348 257.648C265.6 259.325 256.288 259.073 253.523 259.068C250.235 259.055 246.649 259.01 243.366 258.625C242.166 258.483 241.331 258.365 241.074 257.095C242.041 255.298 249.588 255.213 251.508 255.3C250.135 254.043 245.317 250.205 248.616 248.505C250.788 248.38 251.483 249.298 252.345 251.105C253.208 248.978 253.348 248.325 255.245 246.96Z" fill="#51F392"/>
<path d="M45.9695 236.438C46.7908 236.818 50.4118 235.821 53.158 237.209L52.6248 237.629C52.8665 239.218 54.6835 241.197 55.3748 242.66C56.652 245.362 55.1265 247.264 57.9643 248.843C56.949 248.653 52.5335 246.541 51.3953 245.976C47.5835 245.61 43.6195 244.797 39.7923 244.212C41.5905 243.666 43.476 239.455 42.9313 238.012L42.2043 237.849C42.4958 237.73 42.9198 237.411 43.1985 237.219C43.7478 237.347 45.3003 236.673 45.9695 236.438Z" fill="#9CA59F" fill-opacity="0.662745"/>
<path d="M50.011 224.991C51.529 225.878 52.627 228.27 53.4583 229.831C53.5433 230.103 53.739 230.782 53.8405 231.007L53.6475 231.123C52.548 231.771 51.6393 231.943 50.4808 232.421C48.1025 233.404 47.5063 234.984 45.9695 236.438C45.3003 236.673 43.7478 237.347 43.1985 237.219C42.018 235.863 40.5385 233.998 39.1118 232.963C37.775 231.993 35.6775 232.299 35.1098 230.446C35.4043 228.928 36.6773 225.617 38.4338 225.58C39.0083 227.66 38.6955 228.009 40.0533 229.959C41.4793 232.006 43.3238 234.149 44.3098 236.417C44.8758 235.019 45.6495 233.495 46.306 232.123L47.7355 230.395C48.196 229.76 49.1908 227.85 49.6198 227.077C49.6385 226.799 49.9433 225.344 50.011 224.991Z" fill="#51F392"/>
<path d="M199.05 14.9232C199.88 14.5126 204.517 13.1122 205.6 13.3569C206.303 13.5158 206.312 13.7418 206.594 14.2583C206.01 15.6056 205.437 16.9579 204.876 18.3151C204.272 19.3734 203.678 20.5079 202.723 21.2918C200.552 23.0751 195.619 25.4134 194.989 20.9549C195.239 17.6023 195.921 16.3232 199.05 14.9232Z" fill="#3ACE6E"/>
<path d="M199.05 14.9232C199.88 14.5126 204.517 13.1122 205.6 13.3569C206.303 13.5158 206.312 13.7418 206.594 14.2583C206.01 15.6056 205.437 16.9579 204.876 18.3151C204.722 17.6304 204.302 16.6349 204.038 15.9521L203.663 17.2567L203.339 17.4023L202.688 16.413L202.179 16.4489C201.701 17.1419 201.768 17.3146 201.097 17.4955L200.708 16.7191L199.924 16.7354C199.43 16.5927 199.005 16.8759 198.14 16.8558L197.895 16.593C198.189 15.8592 198.544 15.5126 199.05 14.9232Z" fill="#ACF9CB"/>
<path d="M204.038 15.9521C204.58 15.1934 205.733 14.7071 206.594 14.2583C206.01 15.6056 205.437 16.9579 204.876 18.3151C204.722 17.6304 204.302 16.6349 204.038 15.9521Z" fill="#51F392"/>
<path d="M42.2043 237.849L42.9313 238.012C43.476 239.455 41.5905 243.666 39.7923 244.212C37.7 243.459 36.41 241.994 36.6235 239.656C37.618 238.063 38.6055 238.839 40.2835 238.533C40.7353 238.45 41.738 238.038 42.2043 237.849Z" fill="#A1A1A1" fill-opacity="0.988235"/>
<path d="M277.533 240.994C276.17 241.299 269.908 241.222 268.735 240.648C269.575 239.988 274.358 240.062 275.56 240.069C276.355 240.289 276.968 240.382 277.533 240.994Z" fill="#ACF9CB" fill-opacity="0.976471"/>
<path d="M296.773 41.4686C297.068 43.8536 297.173 47.4511 296.793 49.8226C296.168 47.7674 296.343 43.5909 296.773 41.4686Z" fill="#F8F7F8" fill-opacity="0.972549"/>
<path d="M275.56 240.069C276.918 240.121 277.57 240.098 278.878 240.556L278.918 240.804C278.508 240.879 277.925 241.011 277.533 240.994C276.968 240.382 276.355 240.289 275.56 240.069Z" fill="#ACF9CB" fill-opacity="0.745098"/>
</svg>
