<svg width="32" height="32" viewBox="0 0 32 32" fill="none" xmlns="http://www.w3.org/2000/svg">
<path opacity="0.1" d="M32 16.0568C32 21.5455 12 32 12 32C12 32 9 21.5455 9 16.0568C9 14.1852 10.2116 12.3903 12.3683 11.0669C14.5249 9.74348 17.45 9 20.5 9C23.55 9 26.4751 9.74348 28.6317 11.0669C30.7884 12.3903 32 14.1852 32 16.0568Z" fill="#1C1D28"/>
<path fill-rule="evenodd" clip-rule="evenodd" d="M0 12V12.5853C0 15.4431 0.972602 18.2158 2.75783 20.4473L12 32L21.2422 20.4473C23.0274 18.2158 24 15.4431 24 12.5853V12C24 5.37258 18.6274 0 12 0C5.37258 0 0 5.37258 0 12Z" fill="#11301D"/>
<path d="M12 0.5C18.3513 0.5 23.5 5.64873 23.5 12V12.585C23.5 15.3292 22.5659 17.9919 20.8516 20.1348L12 31.1992L3.14844 20.1348C1.43414 17.9919 0.5 15.3292 0.5 12.585V12C0.5 5.64873 5.64873 0.5 12 0.5Z" stroke="#1C1D28" stroke-opacity="0.1"/>
<path fill-rule="evenodd" clip-rule="evenodd" d="M17.4429 17.0429C17.7644 16.9861 18 16.6914 18 16.3462V5.35327C18 5.13502 17.8151 4.96901 17.6119 5.00489L14.2785 5.59353C14.1178 5.62191 14 5.76925 14 5.9419V11.6468L10.2443 6.6727C10.0935 6.47288 9.8524 6.37514 9.6142 6.41721L6.56039 6.95648L6.55707 6.95707C6.23561 7.01384 6 7.30852 6 7.65382V18.6467C6 18.865 6.18495 19.031 6.38813 18.9951L9.72147 18.4064C9.8822 18.3781 10 18.2307 10 18.058V12.3532L13.7557 17.3273C13.9065 17.5271 14.1476 17.6248 14.3858 17.5828L14.3881 17.5824L17.4396 17.0435L17.4429 17.0429Z" fill="#FEFEFE"/>
</svg>
