<svg width="32" height="32" viewBox="0 0 32 32" fill="none" xmlns="http://www.w3.org/2000/svg">
<path opacity="0.1" d="M32 16.0568C32 21.5455 12 32 12 32C12 32 9 21.5455 9 16.0568C9 14.1852 10.2116 12.3903 12.3683 11.0669C14.5249 9.74348 17.45 9 20.5 9C23.55 9 26.4751 9.74348 28.6317 11.0669C30.7884 12.3903 32 14.1852 32 16.0568Z" fill="#1C1D28"/>
<path fill-rule="evenodd" clip-rule="evenodd" d="M0 12V12.5853C0 15.4431 0.972602 18.2158 2.75783 20.4473L12 32L21.2422 20.4473C23.0274 18.2158 24 15.4431 24 12.5853V12C24 5.37258 18.6274 0 12 0C5.37258 0 0 5.37258 0 12Z" fill="#FA6F6F"/>
<path d="M12 0.5C18.3513 0.5 23.5 5.64873 23.5 12V12.585C23.5 15.3292 22.5659 17.9919 20.8516 20.1348L12 31.1992L3.14844 20.1348C1.43414 17.9919 0.5 15.3292 0.5 12.585V12C0.5 5.64873 5.64873 0.5 12 0.5Z" stroke="#1C1D28" stroke-opacity="0.1"/>
</svg>
