<svg width="11" height="12" viewBox="0 0 11 12" fill="none" xmlns="http://www.w3.org/2000/svg">
<path opacity="0.1" d="M10.6667 5.51953C10.6667 7.40625 4 11 4 11C4 11 3 7.40625 3 5.51953C3 4.87617 3.40387 4.25917 4.12276 3.80424C4.84165 3.34932 5.81667 3.09375 6.83333 3.09375C7.85 3.09375 8.82502 3.34932 9.54391 3.80424C10.2628 4.25917 10.6667 4.87617 10.6667 5.51953Z" fill="#1C1D28"/>
<path fill-rule="evenodd" clip-rule="evenodd" d="M0 4.6665V4.86161C0 5.8142 0.324201 6.73842 0.919278 7.48227L4 11.3332L7.08072 7.48227C7.6758 6.73842 8 5.8142 8 4.86161V4.6665C8 2.45736 6.20914 0.666504 4 0.666504C1.79086 0.666504 0 2.45737 0 4.6665Z" fill="#53F293"/>
<path d="M4 1.1665C5.933 1.1665 7.5 2.73351 7.5 4.6665V4.86182C7.49995 5.70064 7.21435 6.51436 6.69043 7.16943L4 10.5317L1.30957 7.16943C0.785648 6.51436 0.500047 5.70064 0.5 4.86182V4.6665C0.5 2.73351 2.067 1.1665 4 1.1665Z" stroke="#1C1D28" stroke-opacity="0.1"/>
</svg>
