<svg width="8" height="8" viewBox="0 0 8 8" fill="none" xmlns="http://www.w3.org/2000/svg">
<path fill-rule="evenodd" clip-rule="evenodd" d="M7.4994 4.49962C7.4994 6.43245 5.93253 7.99932 3.9997 7.99932C2.06687 7.99932 0.5 6.43245 0.5 4.49962C0.5 2.74977 1.99987 1.49987 1.99987 1.49987H2.99979V2.24981C2.99979 2.52593 3.22363 2.74977 3.49974 2.74977C3.77586 2.74977 3.9997 2.52593 3.9997 2.24981V0H4.99962C4.99962 0 7.4994 1.49987 7.4994 4.49962ZM4.99962 5.99949C4.99962 6.55173 4.55194 6.9994 3.9997 6.9994C3.44746 6.9994 2.99979 6.55173 2.99979 5.99949C2.99979 4.7496 3.9997 3.99966 3.9997 3.99966C3.9997 3.99966 4.99962 4.7496 4.99962 5.99949Z" fill="#0A0A0A"/>
</svg>
