<svg width="8" height="8" viewBox="0 0 8 8" fill="none" xmlns="http://www.w3.org/2000/svg">
<g clip-path="url(#clip0_401_46419)">
<path d="M4.00014 1.17107L1.17205 3.99916L4.00014 6.82726L6.82823 3.99916L4.00014 1.17107ZM4.23579 0.463798L7.53551 3.76352C7.59799 3.82602 7.63309 3.91078 7.63309 3.99916C7.63309 4.08754 7.59799 4.17231 7.53551 4.23481L4.23579 7.53453C4.17328 7.59701 4.08852 7.63212 4.00014 7.63212C3.91176 7.63212 3.827 7.59701 3.76449 7.53453L0.464775 4.23481C0.40229 4.17231 0.367188 4.08754 0.367188 3.99916C0.367188 3.91078 0.40229 3.82602 0.464775 3.76352L3.76449 0.463798C3.827 0.401313 3.91176 0.366211 4.00014 0.366211C4.08852 0.366211 4.17328 0.401313 4.23579 0.463798ZM4.33344 3.33255V2.49929L5.50001 3.66586L4.33344 4.83243V3.99916H3.33353V4.99908H2.66692V3.66586C2.66692 3.57746 2.70204 3.49268 2.76454 3.43018C2.82705 3.36767 2.91183 3.33255 3.00023 3.33255H4.33344Z" fill="#0A0A0A"/>
</g>
<defs>
<clipPath id="clip0_401_46419">
<rect width="7.99932" height="7.99932" fill="white"/>
</clipPath>
</defs>
</svg>
