<svg width="8" height="10" viewBox="0 0 8 10" fill="none" xmlns="http://www.w3.org/2000/svg">
<path fill-rule="evenodd" clip-rule="evenodd" d="M7.62862 8.02862C7.84293 7.99076 8 7.79429 8 7.56411V0.23551C8 0.0900135 7.87671 -0.0206597 7.74124 0.00326261L5.51902 0.395685C5.41187 0.414606 5.33333 0.512834 5.33333 0.627933V4.4312L2.82956 1.11514C2.72898 0.981921 2.56827 0.916761 2.40947 0.944808L0.373596 1.30432L0.371378 1.30471C0.157071 1.34256 0 1.53902 0 1.76921V9.09782C0 9.24333 0.123302 9.35399 0.258756 9.33007L2.48098 8.93761C2.58813 8.91873 2.66667 8.8205 2.66667 8.70536V4.90211L5.17044 8.21821C5.27102 8.35138 5.43173 8.41655 5.59053 8.38853L5.59209 8.38825L7.6264 8.02899L7.62862 8.02862Z" fill="#0A0A0A"/>
</svg>
