<svg width="8" height="8" viewBox="0 0 8 8" fill="none" xmlns="http://www.w3.org/2000/svg">
<path fill-rule="evenodd" clip-rule="evenodd" d="M3.5 7C4.33141 7 5.09512 6.7101 5.69555 6.22588L7.45983 7.99016L7.99016 7.45983L6.22588 5.69555C6.7101 5.09512 7 4.33141 7 3.5C7 1.567 5.433 0 3.5 0C1.567 0 0 1.567 0 3.5C0 5.433 1.567 7 3.5 7ZM3.5 6.25C5.01878 6.25 6.25 5.01878 6.25 3.5C6.25 1.98122 5.01878 0.75 3.5 0.75C1.98122 0.75 0.75 1.98122 0.75 3.5C0.75 5.01878 1.98122 6.25 3.5 6.25Z" fill="#0A0A0A"/>
</svg>
