<svg width="8" height="8" viewBox="0 0 8 8" fill="none" xmlns="http://www.w3.org/2000/svg">
<path d="M2.99974 3.4997L3.4997 2.99974L2.35335 1.8534L2.64622 1.56053C3.00518 1.20157 3.49202 0.999915 3.99966 0.999915C4.5073 0.999915 4.99414 1.20157 5.3531 1.56053L5.39599 1.60342C5.7824 1.98983 5.99949 2.51393 5.99949 3.0604L5.99949 3.4997L6.9994 3.4997V3.0604C6.9994 2.24873 6.67697 1.47031 6.10303 0.89637L6.06014 0.853481C5.51367 0.307006 4.77249 0 3.99966 0C3.22683 0 2.48565 0.307006 1.93918 0.85348L1.64631 1.14635L0.499958 0L0 0.499957L0 3.4997H2.99974Z" fill="#0A0A0A"/>
<path d="M5.3531 6.43879C4.99414 6.79775 4.5073 6.9994 3.99966 6.9994C3.49202 6.9994 3.00518 6.79775 2.64622 6.43879L2.60333 6.3959C2.21692 6.00949 1.99983 5.48539 1.99983 4.93892L1.99983 4.49962L0.999915 4.49962V4.93892C0.999915 5.75059 1.32235 6.52901 1.89629 7.10295L1.93917 7.14584C2.48565 7.69231 3.22683 7.99932 3.99966 7.99932C4.77249 7.99932 5.51367 7.69231 6.06014 7.14584L6.35301 6.85297L7.49936 7.99932L7.99932 7.49936L7.99932 4.49962L4.99957 4.49962L4.49962 4.99957L5.64597 6.14592L5.3531 6.43879Z" fill="#0A0A0A"/>
</svg>
