<svg width="16" height="16" viewBox="0 0 16 16" fill="none" xmlns="http://www.w3.org/2000/svg">
<g clip-path="url(#clip0_401_46236)">
<path d="M7.99895 2.34326L2.34228 7.99992L7.99895 13.6566L13.6556 7.99992L7.99895 2.34326ZM8.47028 0.928589L15.0703 7.52859C15.1953 7.65361 15.2655 7.82315 15.2655 7.99992C15.2655 8.1767 15.1953 8.34624 15.0703 8.47126L8.47028 15.0713C8.34526 15.1962 8.17572 15.2664 7.99895 15.2664C7.82217 15.2664 7.65263 15.1962 7.52761 15.0713L0.927613 8.47126C0.802632 8.34624 0.732422 8.1767 0.732422 7.99992C0.732422 7.82315 0.802632 7.65361 0.927613 7.52859L7.52761 0.928589C7.65263 0.803609 7.82217 0.733398 7.99895 0.733398C8.17572 0.733398 8.34526 0.803609 8.47028 0.928589ZM8.66561 6.66659V4.99992L10.9989 7.33326L8.66561 9.66659V7.99992H6.66561V9.99992H5.33228V7.33326C5.33228 7.15644 5.40252 6.98688 5.52754 6.86185C5.65257 6.73683 5.82213 6.66659 5.99895 6.66659H8.66561Z" fill="#0A0A0A"/>
</g>
<defs>
<clipPath id="clip0_401_46236">
<rect width="16" height="16" fill="white"/>
</clipPath>
</defs>
</svg>
