<svg width="16" height="19" viewBox="0 0 16 19" fill="none" xmlns="http://www.w3.org/2000/svg">
<path fill-rule="evenodd" clip-rule="evenodd" d="M15.2572 16.0572C15.6859 15.9815 16 15.5886 16 15.1282V0.471021C16 0.180027 15.7534 -0.0413195 15.4825 0.00652522L11.038 0.791371C10.8237 0.829213 10.6667 1.02567 10.6667 1.25587V8.8624L5.65911 2.23027C5.45796 1.96384 5.13653 1.83352 4.81893 1.88962L0.747191 2.60864L0.742755 2.60943C0.314142 2.68511 0 3.07803 0 3.53843V18.1956C0 18.4867 0.246604 18.708 0.517511 18.6601L4.96196 17.8752C5.17627 17.8375 5.33333 17.641 5.33333 17.4107V9.80422L10.3409 16.4364C10.542 16.7028 10.8635 16.8331 11.1811 16.7771L11.1842 16.7765L15.2528 16.058L15.2572 16.0572Z" fill="#0A0A0A"/>
</svg>
